<?xml version="1.0" encoding="UTF-8" standalone="no"?>
<!-- Created with Inkscape (http://www.inkscape.org/) -->

<svg
   xmlns:dc="http://purl.org/dc/elements/1.1/"
   xmlns:cc="http://creativecommons.org/ns#"
   xmlns:rdf="http://www.w3.org/1999/02/22-rdf-syntax-ns#"
   xmlns:svg="http://www.w3.org/2000/svg"
   xmlns="http://www.w3.org/2000/svg"
   xmlns:sodipodi="http://sodipodi.sourceforge.net/DTD/sodipodi-0.dtd"
   xmlns:inkscape="http://www.inkscape.org/namespaces/inkscape"
   width="67mm"
   height="67mm"
   viewBox="0 0 67.000001 67"
   version="1.1"
   id="svg8"
   inkscape:version="0.92.1 r15371"
   sodipodi:docname="kirakiratter_logo.svg"
   inkscape:export-filename="C:\Users\south\Documents\Projects\kirakiratter_design\logo\kirakiratter-logo-v5.png"
   inkscape:export-xdpi="113.73"
   inkscape:export-ydpi="113.73">
  <defs
     id="defs2" />
  <sodipodi:namedview
     id="base"
     pagecolor="#ffffff"
     bordercolor="#666666"
     borderopacity="1.0"
     inkscape:pageopacity="0.0"
     inkscape:pageshadow="2"
     inkscape:zoom="3.959798"
     inkscape:cx="107.94902"
     inkscape:cy="134.38796"
     inkscape:document-units="mm"
     inkscape:current-layer="layer7"
     showgrid="false"
     inkscape:pagecheckerboard="false"
     fit-margin-top="0"
     fit-margin-left="0"
     fit-margin-right="0"
     fit-margin-bottom="0"
     inkscape:window-width="2160"
     inkscape:window-height="1361"
     inkscape:window-x="-9"
     inkscape:window-y="-9"
     inkscape:window-maximized="1"
     showguides="false" />
  <metadata
     id="metadata5">
    <rdf:RDF>
      <cc:Work
         rdf:about="">
        <dc:format>image/svg+xml</dc:format>
        <dc:type
           rdf:resource="http://purl.org/dc/dcmitype/StillImage" />
        <dc:title></dc:title>
      </cc:Work>
    </rdf:RDF>
  </metadata>
  <g
     inkscape:label="Background"
     inkscape:groupmode="layer"
     id="layer1"
     transform="translate(-18.823673,-4.7636718)">
    <rect
       style="fill:#fc217d;fill-opacity:1;stroke:none;stroke-width:3.18021774;stroke-miterlimit:4;stroke-dasharray:none"
       id="rect4511"
       width="67"
       height="67"
       x="18.823673"
       y="4.7636752" />
  </g>
  <g
     inkscape:groupmode="layer"
     id="layer5"
     inkscape:label="Cloud">
    <path
       transform="translate(-18.823673,-4.7636718)"
       style="fill:none;stroke:#ffffff;stroke-width:3.36500001;stroke-linecap:butt;stroke-linejoin:miter;stroke-miterlimit:4;stroke-dasharray:none;stroke-opacity:1"
       d="m 70.320243,49.253808 c 0,0 1.07793,4.378192 4.00904,7.750816 -4.53925,0.134921 -9.35443,-1.069079 -9.35443,-1.069079 0,0 -14.69983,5.879931 -23.78699,-1.069076 -6.81537,1.336346 -19.090704,-8.837652 -9.35443,-18.976136 -4.40921,-14.215197 23.51971,-28.8651104 35.27957,-6.1472 7.61718,2.80633 9.6217,10.958049 3.20724,19.510675 z"
       id="path21"
       inkscape:connector-curvature="0"
       sodipodi:nodetypes="ccccccc" />
  </g>
  <g
     inkscape:groupmode="layer"
     id="layer3"
     inkscape:label="Stars"
     style="display:none">
    <path
       transform="translate(-18.823673,-4.7636718)"
       style="display:inline;fill:#ffffff;stroke:#ffffff;stroke-width:0.26458332px;stroke-linecap:butt;stroke-linejoin:miter;stroke-opacity:1"
       d="m 50.943203,35.756697 c 4.71035,-0.344533 7.44815,-1.596857 7.81763,-8.318763 0.20475,6.737818 4.20124,8.401344 6.81537,8.485806 -2.6559,-0.09571 -6.9147,3.516571 -6.88219,7.450139 -0.0452,-3.908412 -2.9731,-7.335643 -7.75081,-7.617182 z"
       id="path4501"
       inkscape:connector-curvature="0"
       sodipodi:nodetypes="ccccc" />
    <path
       transform="translate(-18.823673,-4.7636718)"
       style="fill:#ffffff;stroke:#ffffff;stroke-width:0.26458332px;stroke-linecap:butt;stroke-linejoin:miter;stroke-opacity:1"
       d="m 45.731443,43.674557 c 4.88937,0 5.32205,-1.996666 5.31198,-5.278575 0,3.272124 0.95688,5.345393 5.44562,5.345393 -4.46519,0.02074 -5.36727,1.644589 -5.3788,5.378799 0.0116,-3.749678 -0.51298,-5.445617 -5.3788,-5.445617 z"
       id="path4503"
       inkscape:connector-curvature="0"
       sodipodi:nodetypes="ccccc" />
    <path
       transform="translate(-18.823673,-4.7636718)"
       style="fill:#ffffff;stroke:#ffffff;stroke-width:0.26458332px;stroke-linecap:butt;stroke-linejoin:miter;stroke-opacity:1"
       d="m 56.940063,47.483147 c 4.85641,0 5.66277,-1.679366 5.66277,-5.128234 0,3.798722 1.17775,5.245185 4.2429,5.211755 -2.83133,0.03088 -4.2262,1.34309 -4.2262,5.428913 0,-3.52966 -0.73025,-5.426876 -5.67947,-5.512434 z"
       id="path4507"
       inkscape:connector-curvature="0"
       sodipodi:nodetypes="ccccc" />
  </g>
  <g
     inkscape:groupmode="layer"
     id="layer2"
     inkscape:label="Stars v2"
     style="display:none">
    <path
       style="fill:#ffffff;fill-opacity:1;stroke:none;stroke-width:3.24091291;stroke-miterlimit:4;stroke-dasharray:none"
       d="m 39.864138,23.199933 c -0.192498,4.141576 -3.314515,7.463525 -7.238833,7.702403 v 0.01476 c 3.923546,0.235231 7.047888,3.552801 7.245035,7.693111 0.197581,-4.205689 3.412463,-7.552881 7.401615,-7.706232 -3.99081,-0.149951 -7.164775,-2.561859 -7.407817,-7.704042 z m 5.16e-4,16.202006 c -0.0023,0.06236 -0.0052,0.1247 -0.0088,0.186994 h 0.0155 c -0.0029,-0.0623 -0.0051,-0.124638 -0.0067,-0.186994 z"
       id="rect4492"
       inkscape:connector-curvature="0"
       sodipodi:nodetypes="cccccccccc" />
    <path
       style="display:inline;fill:#ffffff;fill-opacity:1;stroke:none;stroke-width:2.42170143;stroke-miterlimit:4;stroke-dasharray:none"
       d="M 32.23006,33.221026 A 5.7470352,6.0624036 0 0 1 26.821,38.976478 v 0.01103 a 5.7470362,6.0624041 0 0 1 5.413695,5.748509 5.747036,6.0624037 0 0 1 5.530695,-5.758314 5.7470356,6.0624037 0 0 1 -5.53533,-5.756677 z m 3.95e-4,12.106595 a 5.7470362,6.0624041 0 0 1 -0.0066,0.139727 h 0.01158 a 5.747036,6.0624037 0 0 1 -0.005,-0.139727 z"
       id="rect4492-1"
       inkscape:connector-curvature="0" />
    <path
       style="display:inline;fill:#ffffff;fill-opacity:1;stroke:none;stroke-width:2.42170143;stroke-miterlimit:4;stroke-dasharray:none"
       d="M 43.82506,37.052678 A 5.7470352,6.0624037 0 0 1 38.416,42.80813 v 0.01103 a 5.7470363,6.0624043 0 0 1 5.413695,5.748509 5.747036,6.0624037 0 0 1 5.530695,-5.758314 5.7470357,6.0624037 0 0 1 -5.53533,-5.756677 z m 3.97e-4,12.106595 a 5.7470363,6.0624043 0 0 1 -0.0066,0.139727 h 0.01158 a 5.747036,6.0624037 0 0 1 -0.005,-0.139727 z"
       id="rect4492-1-0"
       inkscape:connector-curvature="0" />
  </g>
  <g
     inkscape:groupmode="layer"
     id="layer4"
     inkscape:label="Stars v3"
     style="display:none">
    <path
       style="fill:#ffffff;fill-opacity:1;stroke:none;stroke-width:4.81644106;stroke-miterlimit:4;stroke-dasharray:none"
       d="m 39.859072,22.691629 a 6.000387,8.6204584 0 0 1 -5.783586,8.229399 6.000387,8.6204584 0 0 1 5.789168,8.251972 6.000387,8.6204584 0 0 1 5.79661,-8.256722 6.000387,8.6204584 0 0 1 -5.802192,-8.224649 z"
       id="rect4634"
       inkscape:connector-curvature="0" />
    <path
       style="fill:#ffffff;fill-opacity:1;stroke:none;stroke-width:3.54722476;stroke-miterlimit:4;stroke-dasharray:none"
       d="m 32.226344,32.989759 a 4.41918,6.3488167 0 0 1 -4.25951,6.060808 4.41918,6.3488167 0 0 1 4.263621,6.077433 4.41918,6.3488167 0 0 1 4.269101,-6.080931 4.41918,6.3488167 0 0 1 -4.273212,-6.05731 z"
       id="rect4634-5"
       inkscape:connector-curvature="0" />
    <path
       style="fill:#ffffff;fill-opacity:1;stroke:none;stroke-width:3.54722476;stroke-miterlimit:4;stroke-dasharray:none"
       d="m 43.82506,36.623759 a 4.4191801,6.3488168 0 0 1 -4.25951,6.060808 4.4191801,6.3488168 0 0 1 4.263621,6.077433 4.4191801,6.3488168 0 0 1 4.269101,-6.080931 4.4191801,6.3488168 0 0 1 -4.273212,-6.05731 z"
       id="rect4634-5-9"
       inkscape:connector-curvature="0" />
  </g>
  <g
     inkscape:groupmode="layer"
     id="layer6"
     inkscape:label="Stars v4"
     style="display:none">
    <path
       style="fill:#ffffff;stroke-width:0.29974064"
       d="m 39.940787,22.165266 c -0.152677,4.850285 -3.027506,8.711193 -6.617048,8.865757 3.588216,0.154547 6.462031,4.012251 6.616663,8.859977 0.154716,-4.847503 3.02887,-8.705431 6.617048,-8.859977 -3.589447,-0.15457 -6.463862,-4.015626 -6.616663,-8.865757 z"
       id="rect3701"
       inkscape:connector-curvature="0" />
    <path
       style="fill:#ffffff;stroke-width:0.22663735"
       d="m 32.284459,32.226955 c -0.115441,3.667357 -2.289132,6.586633 -5.003226,6.703501 2.713091,0.116854 4.886016,3.033709 5.002935,6.69913 0.116983,-3.665252 2.290163,-6.582277 5.003226,-6.69913 -2.714022,-0.116872 -4.8874,-3.036261 -5.002935,-6.703501 z"
       id="rect3701-0"
       inkscape:connector-curvature="0" />
    <path
       style="fill:#ffffff;stroke-width:0.20266905"
       d="m 43.874892,36.655226 c -0.103232,3.279511 -2.047042,5.890056 -4.474104,5.994565 2.426165,0.104495 4.36929,2.712875 4.473844,5.990655 0.104611,-3.277629 2.047964,-5.88616 4.474104,-5.990655 -2.426997,-0.104513 -4.370527,-2.715158 -4.473844,-5.994565 z"
       id="rect3701-0-9"
       inkscape:connector-curvature="0" />
  </g>
  <g
     inkscape:groupmode="layer"
     id="layer7"
     inkscape:label="Stars v5"
     style="display:inline">
    <path
       style="fill:#ffffff;stroke-width:0.24346632"
       d="m 32.24153,33.092626 c -0.01394,3.244077 -2.224104,5.85203 -4.97334,5.868373 2.749244,0.01632 4.958867,2.624823 4.972823,5.868895 0.01394,-3.244085 2.224085,-5.852573 4.97334,-5.868895 -2.749219,-0.01634 -4.958867,-2.624317 -4.972823,-5.868373 z"
       id="rect3701-7"
       inkscape:connector-curvature="0" />
    <path
       style="display:inline;fill:#ffffff;stroke-width:0.29974064"
       d="m 39.941048,22.165266 c -0.152677,4.850285 -3.027506,8.711193 -6.617048,8.865757 3.588216,0.154547 6.462031,4.012251 6.616663,8.859977 0.154716,-4.847503 3.02887,-8.705431 6.617048,-8.859977 -3.589447,-0.15457 -6.463862,-4.015626 -6.616663,-8.865757 z"
       id="rect3701-3"
       inkscape:connector-curvature="0" />
    <path
       style="display:inline;fill:#ffffff;stroke-width:0.24346632"
       d="m 43.855436,36.931676 c -0.01394,3.244077 -2.224104,5.85203 -4.97334,5.868373 2.749244,0.01632 4.958867,2.624823 4.972823,5.868895 0.01394,-3.244085 2.224085,-5.852573 4.97334,-5.868895 -2.749219,-0.01634 -4.958867,-2.624317 -4.972823,-5.868373 z"
       id="rect3701-7-2"
       inkscape:connector-curvature="0" />
  </g>
  <g
     inkscape:groupmode="layer"
     id="layer8"
     inkscape:label="Stars v6"
     style="display:none">
    <rect
       id="rect3701-7-7"
       width="12.112921"
       height="17.606995"
       x="-22.632015"
       y="16.775017"
       style="display:inline;fill:#cccccc;stroke-width:0.24346632"
       inkscape:export-xdpi="113.73"
       inkscape:export-ydpi="113.73" />
    <rect
       style="display:inline;fill:#ececec;stroke-width:0.42249686"
       id="rect3707-6-3"
       width="12.112921"
       height="18.169003"
       x="-28.682417"
       y="7.404994"
       rx="5"
       ry="5.9000001"
       inkscape:export-xdpi="113.73"
       inkscape:export-ydpi="113.73" />
    <rect
       style="display:inline;fill:#ececec;stroke-width:0.42249686"
       id="rect3707-0-6-7"
       width="12.112921"
       height="18.169003"
       x="-16.571924"
       y="7.404994"
       rx="5"
       ry="5.9000001"
       inkscape:export-xdpi="113.73"
       inkscape:export-ydpi="113.73" />
    <rect
       style="display:inline;fill:#ececec;stroke-width:0.42249686"
       id="rect3707-0-8-2-6"
       width="12.112921"
       height="18.169003"
       x="-16.571924"
       y="25.572449"
       rx="5"
       ry="5.9000001"
       inkscape:export-xdpi="113.73"
       inkscape:export-ydpi="113.73" />
    <rect
       style="display:inline;fill:#ececec;stroke-width:0.42249686"
       id="rect3707-0-8-4-4-0"
       width="12.112921"
       height="18.169003"
       x="-28.682417"
       y="25.572449"
       rx="5"
       ry="5.9000001"
       inkscape:export-xdpi="113.73"
       inkscape:export-ydpi="113.73" />
  </g>
</svg>
