<svg id="Layer_1" data-name="Layer 1" xmlns="http://www.w3.org/2000/svg" width="512" height="512" viewBox="0 0 384 384"><defs><style>.cls-1{fill:#fc217d;}.cls-2{fill:none;stroke:#fff;stroke-width:19.29px;}.cls-3{fill:#fff;}</style></defs><title>kirakiratter</title><rect class="cls-1" width="384" height="384"/><path class="cls-2" d="M295.14,255s6.18,25.09,23,44.42c-26,.77-53.61-6.12-53.61-6.12s-84.25,33.7-136.33-6.13C89.12,294.82,18.76,236.5,74.56,178.4,49.29,96.93,209.36,13,276.76,143.16,320.42,159.25,331.91,206,295.14,255Z"/><path class="cls-3" d="M182.23,186.43A102.34,102.34,0,0,1,181,199.64c-1.13,6.44-3.09,11.09-6.38,14.4s-7.91,5.27-14.32,6.41a100.15,100.15,0,0,1-13.08,1.22,100.7,100.7,0,0,1,13.07,1.22c6.41,1.13,11,3.1,14.33,6.41s5.24,7.95,6.38,14.39a103.11,103.11,0,0,1,1.22,13.23,101.6,101.6,0,0,1,1.21-13.22c1.13-6.44,3.09-11.08,6.38-14.39s7.91-5.28,14.33-6.41a100.7,100.7,0,0,1,13.08-1.22,100.73,100.73,0,0,1-13.08-1.22c-6.41-1.14-11-3.1-14.33-6.41s-5.24-7.95-6.37-14.39A103.07,103.07,0,0,1,182.23,186.43Z"/><path class="cls-3" d="M249.64,214.66a88.15,88.15,0,0,1-1,11.15c-.93,5.43-2.54,9.35-5.25,12.15s-6.5,4.45-11.77,5.41a80.6,80.6,0,0,1-10.75,1,79.89,79.89,0,0,1,10.74,1c5.27,1,9.07,2.62,11.77,5.41s4.31,6.71,5.24,12.14a89,89,0,0,1,1,11.17,88.2,88.2,0,0,1,1-11.16c.93-5.44,2.54-9.36,5.25-12.15s6.5-4.46,11.76-5.41a80.07,80.07,0,0,1,10.75-1,81.19,81.19,0,0,1-10.74-1c-5.27-1-9.06-2.61-11.77-5.41s-4.31-6.71-5.24-12.14A88.94,88.94,0,0,1,249.64,214.66Z"/><path class="cls-3" d="M226.82,128.44a142.94,142.94,0,0,1-1.7,18.51c-1.59,9-4.33,15.54-8.95,20.18s-11.09,7.39-20.08,9a141.48,141.48,0,0,1-18.34,1.71,141.42,141.42,0,0,1,18.32,1.71c9,1.59,15.47,4.35,20.09,9s7.35,11.14,8.93,20.16a143.46,143.46,0,0,1,1.71,18.55,143.76,143.76,0,0,1,1.7-18.53c1.58-9,4.33-15.54,8.94-20.18s11.09-7.4,20.07-9a141.62,141.62,0,0,1,18.34-1.71,141.4,141.4,0,0,1-18.32-1.71c-9-1.59-15.46-4.34-20.09-9S230.11,156,228.53,147A143.68,143.68,0,0,1,226.82,128.44Z"/></svg>
